<svg width="16" height="16" viewBox="0 0 16 16" fill="none" xmlns="http://www.w3.org/2000/svg">
<path d="M5.99992 13.3333C6.17673 13.3333 6.3463 13.4036 6.47133 13.5286C6.59635 13.6536 6.66659 13.8232 6.66659 14C6.66659 14.1768 6.59635 14.3464 6.47133 14.4714C6.3463 14.5964 6.17673 14.6667 5.99992 14.6667C5.82311 14.6667 5.65354 14.5964 5.52852 14.4714C5.40349 14.3464 5.33325 14.1768 5.33325 14C5.33325 13.8232 5.40349 13.6536 5.52852 13.5286C5.65354 13.4036 5.82311 13.3333 5.99992 13.3333ZM10.6666 13.3333C10.8434 13.3333 11.013 13.4036 11.138 13.5286C11.263 13.6536 11.3333 13.8232 11.3333 14C11.3333 14.1768 11.263 14.3464 11.138 14.4714C11.013 14.5964 10.8434 14.6667 10.6666 14.6667C10.4898 14.6667 10.3202 14.5964 10.1952 14.4714C10.0702 14.3464 9.99992 14.1768 9.99992 14C9.99992 13.8232 10.0702 13.6536 10.1952 13.5286C10.3202 13.4036 10.4898 13.3333 10.6666 13.3333ZM1.46659 1.93334C1.56398 1.80346 1.70542 1.71358 1.86437 1.68056C2.02332 1.64754 2.18886 1.67366 2.32992 1.75401L2.39992 1.80068L3.53859 2.65401C3.73236 2.79941 3.88286 2.99485 3.97392 3.21934L4.01392 3.33334H12.5779C12.7587 3.3333 12.9375 3.37 13.1036 3.44122C13.2697 3.51243 13.4197 3.61668 13.5442 3.74762C13.6688 3.87856 13.7655 4.03346 13.8283 4.20292C13.8912 4.37237 13.919 4.55283 13.9099 4.73334L13.9013 4.83201L13.5966 7.26868C13.5052 8.00196 13.1726 8.68407 12.6513 9.20781C12.13 9.73154 11.4494 10.0672 10.7166 10.162L10.5659 10.1773L5.69059 10.584L5.86392 11.3333H11.6666C11.8365 11.3335 11.9999 11.3986 12.1235 11.5152C12.2471 11.6319 12.3214 11.7913 12.3314 11.9609C12.3413 12.1306 12.2861 12.2976 12.1771 12.4279C12.068 12.5582 11.9133 12.6419 11.7446 12.662L11.6666 12.6667H5.86392C5.58099 12.6667 5.30538 12.5768 5.07695 12.4098C4.84852 12.2429 4.67912 12.0076 4.59325 11.738L4.56459 11.6333L2.73792 3.72001L1.59992 2.86668C1.45847 2.76059 1.36496 2.60266 1.33996 2.42763C1.31495 2.25259 1.3605 2.07479 1.46659 1.93334Z" fill="white"/>
</svg>
