<svg width="80" height="80" viewBox="0 0 80 80" fill="none" xmlns="http://www.w3.org/2000/svg">
<circle cx="40" cy="40" r="40" fill="url(#paint0_linear_1_540)"/>
<path d="M34.2191 48.0643L27.3629 41.213C26.9935 40.8438 26.4924 40.6364 25.97 40.6364C25.4475 40.6364 24.9464 40.8438 24.577 41.213C24.2075 41.5821 24 42.0828 24 42.6049C24 42.8635 24.051 43.1194 24.15 43.3583C24.249 43.5971 24.3941 43.8141 24.577 43.9969L32.836 52.2501C33.6066 53.0201 34.8514 53.0201 35.622 52.2501L56.5265 31.3605C56.8959 30.9914 57.1034 30.4906 57.1034 29.9686C57.1034 29.4465 56.8959 28.9458 56.5265 28.5766C56.157 28.2074 55.656 28 55.1335 28C54.611 28 54.11 28.2074 53.7405 28.5766L34.2191 48.0643Z" fill="white"/>
<defs>
<linearGradient id="paint0_linear_1_540" x1="40" y1="0" x2="40" y2="80" gradientUnits="userSpaceOnUse">
<stop stop-color="#00AE1C"/>
<stop offset="1" stop-color="#F2F5F7"/>
</linearGradient>
</defs>
</svg>
