<svg width="16" height="16" viewBox="0 0 16 16" fill="none" xmlns="http://www.w3.org/2000/svg">
<g clip-path="url(#clip0_1_549)">
<path d="M8.00024 8.66692C9.59758 8.66692 11.0502 9.12959 12.1189 9.78092C12.6522 10.1076 13.1082 10.4909 13.4376 10.9076C13.7616 11.3183 14.0002 11.8089 14.0002 12.3336C14.0002 12.8969 13.7262 13.3409 13.3316 13.6576C12.9582 13.9576 12.4656 14.1563 11.9422 14.2949C10.8902 14.5729 9.48624 14.6669 8.00024 14.6669C6.51424 14.6669 5.11024 14.5736 4.05824 14.2949C3.53491 14.1563 3.04224 13.9576 2.66891 13.6576C2.27358 13.3403 2.00024 12.8969 2.00024 12.3336C2.00024 11.8089 2.23891 11.3183 2.56291 10.9076C2.89224 10.4909 3.34758 10.1076 3.88158 9.78092C4.95024 9.12959 6.40358 8.66692 8.00024 8.66692ZM8.00024 1.33359C8.8843 1.33359 9.73215 1.68478 10.3573 2.3099C10.9824 2.93502 11.3336 3.78287 11.3336 4.66692C11.3336 5.55098 10.9824 6.39882 10.3573 7.02394C9.73215 7.64906 8.8843 8.00025 8.00024 8.00025C7.11619 8.00025 6.26834 7.64906 5.64322 7.02394C5.0181 6.39882 4.66691 5.55098 4.66691 4.66692C4.66691 3.78287 5.0181 2.93502 5.64322 2.3099C6.26834 1.68478 7.11619 1.33359 8.00024 1.33359Z" fill="#00AE1C"/>
</g>
<defs>
<clipPath id="clip0_1_549">
<rect width="16" height="16" fill="white" transform="translate(0.000244141 0.000244141)"/>
</clipPath>
</defs>
</svg>
