<svg width="200" height="40" viewBox="0 0 200 40" fill="none" xmlns="http://www.w3.org/2000/svg">
<path d="M70.6032 20.2727C70.6032 22.1136 70.2708 23.7045 69.606 25.0455C68.9412 26.3864 68.0293 27.4205 66.8702 28.1477C65.7111 28.875 64.3873 29.2386 62.8986 29.2386C61.41 29.2386 60.0861 28.875 58.927 28.1477C57.768 27.4205 56.856 26.3864 56.1912 25.0455C55.5265 23.7045 55.1941 22.1136 55.1941 20.2727C55.1941 18.4318 55.5265 16.8409 56.1912 15.5C56.856 14.1591 57.768 13.125 58.927 12.3977C60.0861 11.6705 61.41 11.3068 62.8986 11.3068C64.3873 11.3068 65.7111 11.6705 66.8702 12.3977C68.0293 13.125 68.9412 14.1591 69.606 15.5C70.2708 16.8409 70.6032 18.4318 70.6032 20.2727ZM68.5577 20.2727C68.5577 18.7614 68.3049 17.4858 67.7992 16.446C67.2992 15.4062 66.6202 14.6193 65.7623 14.0852C64.91 13.5511 63.9555 13.2841 62.8986 13.2841C61.8418 13.2841 60.8844 13.5511 60.0265 14.0852C59.1742 14.6193 58.4952 15.4062 57.9895 16.446C57.4895 17.4858 57.2395 18.7614 57.2395 20.2727C57.2395 21.7841 57.4895 23.0597 57.9895 24.0994C58.4952 25.1392 59.1742 25.9261 60.0265 26.4602C60.8844 26.9943 61.8418 27.2614 62.8986 27.2614C63.9555 27.2614 64.91 26.9943 65.7623 26.4602C66.6202 25.9261 67.2992 25.1392 67.7992 24.0994C68.3049 23.0597 68.5577 21.7841 68.5577 20.2727ZM79.4527 15.9091V17.6136H72.3959V15.9091H79.4527ZM74.5095 29V14.1023C74.5095 13.3523 74.6857 12.7273 75.038 12.2273C75.3902 11.7273 75.8476 11.3523 76.4101 11.1023C76.9726 10.8523 77.5664 10.7273 78.1914 10.7273C78.6857 10.7273 79.0891 10.767 79.4016 10.8466C79.7141 10.9261 79.947 11 80.1005 11.0682L79.5209 12.8068C79.4186 12.7727 79.2766 12.7301 79.0948 12.679C78.9186 12.6278 78.6857 12.6023 78.3959 12.6023C77.7311 12.6023 77.251 12.7699 76.9556 13.1051C76.6658 13.4403 76.5209 13.9318 76.5209 14.5795V29H74.5095ZM87.8399 15.9091V17.6136H80.7831V15.9091H87.8399ZM82.8967 29V14.1023C82.8967 13.3523 83.0729 12.7273 83.4252 12.2273C83.7774 11.7273 84.2348 11.3523 84.7973 11.1023C85.3598 10.8523 85.9536 10.7273 86.5786 10.7273C87.0729 10.7273 87.4763 10.767 87.7888 10.8466C88.1013 10.9261 88.3342 11 88.4877 11.0682L87.9081 12.8068C87.8058 12.7727 87.6638 12.7301 87.482 12.679C87.3058 12.6278 87.0729 12.6023 86.7831 12.6023C86.1183 12.6023 85.6382 12.7699 85.3428 13.1051C85.053 13.4403 84.9081 13.9318 84.9081 14.5795V29H82.8967ZM90.3976 29V15.9091H92.4089V29H90.3976ZM91.4203 13.7273C91.0283 13.7273 90.6902 13.5938 90.4061 13.3267C90.1277 13.0597 89.9885 12.7386 89.9885 12.3636C89.9885 11.9886 90.1277 11.6676 90.4061 11.4006C90.6902 11.1335 91.0283 11 91.4203 11C91.8123 11 92.1476 11.1335 92.426 11.4006C92.7101 11.6676 92.8521 11.9886 92.8521 12.3636C92.8521 12.7386 92.7101 13.0597 92.426 13.3267C92.1476 13.5938 91.8123 13.7273 91.4203 13.7273ZM101.15 29.2727C99.9226 29.2727 98.8657 28.983 97.9794 28.4034C97.093 27.8239 96.4112 27.0256 95.9339 26.0085C95.4566 24.9915 95.218 23.8295 95.218 22.5227C95.218 21.1932 95.4623 20.0199 95.951 19.0028C96.4453 17.9801 97.1328 17.1818 98.0135 16.608C98.8998 16.0284 99.9339 15.7386 101.116 15.7386C102.036 15.7386 102.866 15.9091 103.604 16.25C104.343 16.5909 104.948 17.0682 105.42 17.6818C105.891 18.2955 106.184 19.0114 106.298 19.8295H104.286C104.133 19.233 103.792 18.7045 103.263 18.2443C102.741 17.7784 102.036 17.5455 101.15 17.5455C100.366 17.5455 99.6782 17.75 99.0873 18.1591C98.5021 18.5625 98.0447 19.1335 97.7152 19.8722C97.3913 20.6051 97.2294 21.4659 97.2294 22.4545C97.2294 23.4659 97.3885 24.3466 97.7066 25.0966C98.0305 25.8466 98.4851 26.429 99.0703 26.8438C99.6612 27.2585 100.354 27.4659 101.15 27.4659C101.673 27.4659 102.147 27.375 102.573 27.1932C102.999 27.0114 103.36 26.75 103.656 26.4091C103.951 26.0682 104.161 25.6591 104.286 25.1818H106.298C106.184 25.9545 105.903 26.6506 105.454 27.2699C105.011 27.8835 104.423 28.3722 103.69 28.7358C102.962 29.0938 102.116 29.2727 101.15 29.2727ZM114.465 29.2727C113.204 29.2727 112.116 28.9943 111.201 28.4375C110.292 27.875 109.59 27.0909 109.096 26.0852C108.607 25.0739 108.363 23.8977 108.363 22.5568C108.363 21.2159 108.607 20.0341 109.096 19.0114C109.59 17.983 110.278 17.1818 111.158 16.608C112.045 16.0284 113.079 15.7386 114.261 15.7386C114.943 15.7386 115.616 15.8523 116.281 16.0795C116.945 16.3068 117.551 16.6761 118.096 17.1875C118.641 17.6932 119.076 18.3636 119.4 19.1989C119.724 20.0341 119.886 21.0625 119.886 22.2841V23.1364H109.795V21.3977H117.84C117.84 20.6591 117.693 20 117.397 19.4205C117.107 18.8409 116.693 18.3835 116.153 18.0483C115.619 17.7131 114.988 17.5455 114.261 17.5455C113.46 17.5455 112.766 17.7443 112.181 18.142C111.602 18.5341 111.156 19.0455 110.843 19.6761C110.531 20.3068 110.374 20.983 110.374 21.7045V22.8636C110.374 23.8523 110.545 24.6903 110.886 25.3778C111.232 26.0597 111.712 26.5795 112.326 26.9375C112.94 27.2898 113.653 27.4659 114.465 27.4659C114.994 27.4659 115.471 27.392 115.897 27.2443C116.329 27.0909 116.701 26.8636 117.014 26.5625C117.326 26.2557 117.568 25.875 117.738 25.4205L119.681 25.9659C119.477 26.625 119.133 27.2045 118.65 27.7045C118.167 28.1989 117.57 28.5852 116.86 28.8636C116.15 29.1364 115.352 29.2727 114.465 29.2727ZM137.002 17H134.889C134.764 16.392 134.545 15.858 134.232 15.3977C133.926 14.9375 133.551 14.5511 133.107 14.2386C132.67 13.9205 132.184 13.6818 131.65 13.5227C131.116 13.3636 130.559 13.2841 129.98 13.2841C128.923 13.2841 127.965 13.5511 127.107 14.0852C126.255 14.6193 125.576 15.4062 125.071 16.446C124.571 17.4858 124.321 18.7614 124.321 20.2727C124.321 21.7841 124.571 23.0597 125.071 24.0994C125.576 25.1392 126.255 25.9261 127.107 26.4602C127.965 26.9943 128.923 27.2614 129.98 27.2614C130.559 27.2614 131.116 27.1818 131.65 27.0227C132.184 26.8636 132.67 26.6278 133.107 26.3153C133.551 25.9972 133.926 25.608 134.232 25.1477C134.545 24.6818 134.764 24.1477 134.889 23.5455H137.002C136.843 24.4375 136.553 25.2358 136.133 25.9403C135.713 26.6449 135.19 27.2443 134.565 27.7386C133.94 28.2273 133.238 28.5994 132.46 28.8551C131.687 29.1108 130.86 29.2386 129.98 29.2386C128.491 29.2386 127.167 28.875 126.008 28.1477C124.849 27.4205 123.937 26.3864 123.272 25.0455C122.607 23.7045 122.275 22.1136 122.275 20.2727C122.275 18.4318 122.607 16.8409 123.272 15.5C123.937 14.1591 124.849 13.125 126.008 12.3977C127.167 11.6705 128.491 11.3068 129.98 11.3068C130.86 11.3068 131.687 11.4347 132.46 11.6903C133.238 11.946 133.94 12.321 134.565 12.8153C135.19 13.304 135.713 13.9006 136.133 14.6051C136.553 15.304 136.843 16.1023 137.002 17ZM141.895 21.125V29H139.884V11.5455H141.895V17.9545H142.066C142.372 17.2784 142.833 16.7415 143.446 16.3438C144.066 15.9403 144.89 15.7386 145.918 15.7386C146.81 15.7386 147.591 15.9176 148.262 16.2756C148.932 16.6278 149.452 17.1705 149.821 17.9034C150.196 18.6307 150.384 19.5568 150.384 20.6818V29H148.372V20.8182C148.372 19.7784 148.103 18.9744 147.563 18.4062C147.029 17.8324 146.287 17.5455 145.338 17.5455C144.679 17.5455 144.088 17.6847 143.566 17.9631C143.049 18.2415 142.64 18.6477 142.338 19.1818C142.043 19.7159 141.895 20.3636 141.895 21.125ZM157.655 29.3068C156.825 29.3068 156.072 29.1506 155.396 28.8381C154.72 28.5199 154.183 28.0625 153.785 27.4659C153.388 26.8636 153.189 26.1364 153.189 25.2841C153.189 24.5341 153.336 23.9261 153.632 23.4602C153.927 22.9886 154.322 22.6193 154.817 22.3523C155.311 22.0852 155.856 21.8864 156.453 21.7557C157.055 21.6193 157.66 21.5114 158.268 21.4318C159.064 21.3295 159.709 21.2528 160.203 21.2017C160.703 21.1449 161.067 21.0511 161.294 20.9205C161.527 20.7898 161.643 20.5625 161.643 20.2386V20.1705C161.643 19.3295 161.413 18.6761 160.953 18.2102C160.498 17.7443 159.808 17.5114 158.882 17.5114C157.922 17.5114 157.169 17.7216 156.623 18.142C156.078 18.5625 155.694 19.0114 155.473 19.4886L153.564 18.8068C153.905 18.0114 154.359 17.392 154.927 16.9489C155.501 16.5 156.126 16.1875 156.802 16.0114C157.484 15.8295 158.155 15.7386 158.814 15.7386C159.234 15.7386 159.717 15.7898 160.263 15.892C160.814 15.9886 161.345 16.1903 161.856 16.4972C162.373 16.804 162.802 17.267 163.143 17.8864C163.484 18.5057 163.655 19.3352 163.655 20.375V29H161.643V27.2273H161.541C161.405 27.5114 161.177 27.8153 160.859 28.1392C160.541 28.4631 160.118 28.7386 159.589 28.9659C159.061 29.1932 158.416 29.3068 157.655 29.3068ZM157.961 27.5C158.757 27.5 159.427 27.3438 159.973 27.0312C160.524 26.7188 160.939 26.3153 161.217 25.821C161.501 25.3267 161.643 24.8068 161.643 24.2614V22.4205C161.558 22.5227 161.37 22.6165 161.081 22.7017C160.797 22.7812 160.467 22.8523 160.092 22.9148C159.723 22.9716 159.362 23.0227 159.01 23.0682C158.663 23.108 158.382 23.142 158.166 23.1705C157.643 23.2386 157.155 23.3494 156.7 23.5028C156.251 23.6506 155.888 23.875 155.609 24.1761C155.336 24.4716 155.2 24.875 155.2 25.3864C155.2 26.0852 155.459 26.6136 155.976 26.9716C156.498 27.3239 157.16 27.5 157.961 27.5ZM167.065 29V15.9091H169.076V29H167.065ZM168.087 13.7273C167.695 13.7273 167.357 13.5938 167.073 13.3267C166.795 13.0597 166.655 12.7386 166.655 12.3636C166.655 11.9886 166.795 11.6676 167.073 11.4006C167.357 11.1335 167.695 11 168.087 11C168.479 11 168.815 11.1335 169.093 11.4006C169.377 11.6676 169.519 11.9886 169.519 12.3636C169.519 12.7386 169.377 13.0597 169.093 13.3267C168.815 13.5938 168.479 13.7273 168.087 13.7273ZM172.499 29V15.9091H174.442V17.8864H174.578C174.817 17.2386 175.249 16.7131 175.874 16.3097C176.499 15.9062 177.203 15.7045 177.987 15.7045C178.135 15.7045 178.32 15.7074 178.541 15.7131C178.763 15.7187 178.93 15.7273 179.044 15.7386V17.7841C178.976 17.767 178.82 17.7415 178.575 17.7074C178.337 17.6676 178.084 17.6477 177.817 17.6477C177.18 17.6477 176.612 17.7812 176.112 18.0483C175.618 18.3097 175.226 18.6733 174.936 19.1392C174.652 19.5994 174.51 20.125 174.51 20.7159V29H172.499ZM190.44 18.8409L188.633 19.3523C188.519 19.0511 188.352 18.7585 188.13 18.4744C187.914 18.1847 187.619 17.946 187.244 17.7585C186.869 17.571 186.389 17.4773 185.803 17.4773C185.002 17.4773 184.335 17.6619 183.801 18.0312C183.272 18.3949 183.008 18.858 183.008 19.4205C183.008 19.9205 183.19 20.3153 183.553 20.6051C183.917 20.8949 184.485 21.1364 185.258 21.3295L187.201 21.8068C188.372 22.0909 189.244 22.5256 189.818 23.1108C190.391 23.6903 190.678 24.4375 190.678 25.3523C190.678 26.1023 190.462 26.7727 190.031 27.3636C189.605 27.9545 189.008 28.4205 188.241 28.7614C187.474 29.1023 186.582 29.2727 185.565 29.2727C184.23 29.2727 183.124 28.983 182.249 28.4034C181.374 27.8239 180.82 26.9773 180.587 25.8636L182.497 25.3864C182.678 26.0909 183.022 26.6193 183.528 26.9716C184.039 27.3239 184.707 27.5 185.531 27.5C186.468 27.5 187.212 27.3011 187.764 26.9034C188.32 26.5 188.599 26.017 188.599 25.4545C188.599 25 188.44 24.6193 188.122 24.3125C187.803 24 187.315 23.767 186.656 23.6136L184.474 23.1023C183.275 22.8182 182.394 22.3778 181.832 21.7812C181.275 21.179 180.997 20.4261 180.997 19.5227C180.997 18.7841 181.204 18.1307 181.619 17.5625C182.039 16.9943 182.61 16.5483 183.332 16.2244C184.059 15.9006 184.883 15.7386 185.803 15.7386C187.099 15.7386 188.116 16.0227 188.855 16.5909C189.599 17.1591 190.127 17.9091 190.44 18.8409Z" fill="white"/>
<rect x="11.3137" y="19.9999" width="28.2843" height="28.2843" rx="5.22483" transform="rotate(-45 11.3137 19.9999)" fill="#004C0C"/>
<rect y="19.9999" width="28.2843" height="28.2843" rx="5.22483" transform="rotate(-45 0 19.9999)" fill="#00AE1C"/>
</svg>
