<svg width="16" height="16" viewBox="0 0 16 16" fill="none" xmlns="http://www.w3.org/2000/svg">
<path d="M10.0002 2.6669C10.3538 2.6669 10.6929 2.80738 10.943 3.05742C11.193 3.30747 11.3335 3.64661 11.3335 4.00023V4.6669H12.3468C12.5467 4.66693 12.744 4.71187 12.9241 4.79842C13.1042 4.88497 13.2626 5.0109 13.3875 5.1669L14.3742 6.4009C14.5636 6.63736 14.6668 6.93127 14.6668 7.23423V10.0002C14.6668 10.3539 14.5264 10.693 14.2763 10.943C14.0263 11.1931 13.6871 11.3336 13.3335 11.3336H12.6668C12.6668 11.864 12.4561 12.3727 12.081 12.7478C11.706 13.1229 11.1973 13.3336 10.6668 13.3336C10.1364 13.3336 9.62769 13.1229 9.25261 12.7478C8.87754 12.3727 8.66683 11.864 8.66683 11.3336H6.66683C6.66683 11.5962 6.6151 11.8563 6.51459 12.0989C6.41408 12.3416 6.26676 12.5621 6.08104 12.7478C5.89533 12.9335 5.67485 13.0808 5.4322 13.1813C5.18954 13.2818 4.92947 13.3336 4.66683 13.3336C4.40419 13.3336 4.14411 13.2818 3.90146 13.1813C3.65881 13.0808 3.43833 12.9335 3.25262 12.7478C3.0669 12.5621 2.91958 12.3416 2.81907 12.0989C2.71856 11.8563 2.66683 11.5962 2.66683 11.3336C2.31321 11.3336 1.97407 11.1931 1.72402 10.943C1.47397 10.693 1.3335 10.3539 1.3335 10.0002V4.00023C1.3335 3.64661 1.47397 3.30747 1.72402 3.05742C1.97407 2.80738 2.31321 2.6669 2.66683 2.6669H10.0002ZM4.66683 10.6669C4.49002 10.6669 4.32045 10.7371 4.19542 10.8622C4.0704 10.9872 4.00016 11.1568 4.00016 11.3336C4.00016 11.5104 4.0704 11.6799 4.19542 11.805C4.32045 11.93 4.49002 12.0002 4.66683 12.0002C4.84364 12.0002 5.01321 11.93 5.13823 11.805C5.26326 11.6799 5.3335 11.5104 5.3335 11.3336C5.3335 11.1568 5.26326 10.9872 5.13823 10.8622C5.01321 10.7371 4.84364 10.6669 4.66683 10.6669ZM10.6668 10.6669C10.49 10.6669 10.3204 10.7371 10.1954 10.8622C10.0704 10.9872 10.0002 11.1568 10.0002 11.3336C10.0002 11.5104 10.0704 11.6799 10.1954 11.805C10.3204 11.93 10.49 12.0002 10.6668 12.0002C10.8436 12.0002 11.0132 11.93 11.1382 11.805C11.2633 11.6799 11.3335 11.5104 11.3335 11.3336C11.3335 11.1568 11.2633 10.9872 11.1382 10.8622C11.0132 10.7371 10.8436 10.6669 10.6668 10.6669ZM12.3468 6.00023H11.3335V8.6669H13.3335V7.23357L12.3468 6.00023Z" fill="#00AE1C"/>
</svg>
